<svg id="dropper" xmlns="http://www.w3.org/2000/svg" viewBox="0 0 50 50">
  <defs>
    <style>
      .cls-1 {
        fill: none;
      }

      .cls-2 {
        fill: #797979;
      }
    </style>
  </defs>
  <title>dropper</title>
  <rect class="cls-1" width="50" height="50"/>
  <path class="cls-2" d="M43.12,8.87l-2-2a3,3,0,0,0-4.23,0L31.73,12l-1.64-1.64a2.08,2.08,0,0,0-2.95,0l-3.28,3.28a2.08,2.08,0,0,0,0,3l.6.61L10.38,31.31A4.83,4.83,0,0,0,9,34.79l-2,2a4.2,4.2,0,0,0-1.27,3.09A4.37,4.37,0,0,0,7,43a4.43,4.43,0,0,0,3.13,1.3,4.36,4.36,0,0,0,3.07-1.27l2-2a4.92,4.92,0,0,0,3.49-1.41L32.77,25.54l.6.6a2.08,2.08,0,0,0,3,0l3.29-3.28a2.08,2.08,0,0,0,0-2.95L38,18.27l5.15-5.16A3,3,0,0,0,43.12,8.87ZM16.62,37.54a1.85,1.85,0,0,1-1.67.51l-.77-.15L11.11,41a1.44,1.44,0,0,1-2,0,1.47,1.47,0,0,1-.44-1.07,1.33,1.33,0,0,1,.4-1l3.07-3.06L12,35.07a1.9,1.9,0,0,1,.51-1.68L26.21,19.64l4.15,4.16Z"/>
</svg>
